<?xml version="1.0" encoding="utf-8"?>
<!-- Generator: Adobe Illustrator 22.0.1, SVG Export Plug-In . SVG Version: 6.00 Build 0)  -->
<svg version="1.1" id="Layer_1" xmlns="http://www.w3.org/2000/svg" xmlns:xlink="http://www.w3.org/1999/xlink" x="0px" y="0px"
	 viewBox="0 0 85.9 59.3" style="enable-background:new 0 0 85.9 59.3;" xml:space="preserve">
<style type="text/css">
	.st0{fill:#FFFFFF;}
</style>
<g>
	<g>
		<path class="st0" d="M56,35.9c-6.8,0-8.1,4.4-7.5,6.9c1.4,4.8,4.3,7.5,9.7,8.1c6.5,0.8,14.2,0.2,14.2,0.2s-1.6-5.1-2.7-8.8
			S66.6,35.9,56,35.9z"/>
		<path class="st0" d="M52,20c-5.7,2.4-6.7,8.2-5.8,15.3c-0.4-3.4,0.1-7.2,4.5-10c4.6-3,17.3-4.8,25.3-5.2c0.6-1.6,1.2-3.3,1.7-4.9
			C66.2,16.3,57.8,17.6,52,20z"/>
		<path class="st0" d="M52.9,28.8c-6.1,2.3-6.8,4.5-5.8,11.1c0.2,0.7,0.4,1.5,0.6,2.2c-1.3-5.5,0.2-8.7,9.6-10.1
			c8.4-1.3,12.8-0.8,16.3-6.5C66.5,26,56.5,27.4,52.9,28.8z"/>
		<path class="st0" d="M49.6,16.9c4.6-5,20.2-6.6,30-7.3c1-3.2,1.6-5.3,1.6-5.3S62.6,5,54.3,9c-7.4,3.6-10.9,8-8.9,21.3
			C44.5,23.1,46.2,20.6,49.6,16.9z"/>
	</g>
	<g>
		<path class="st0" d="M29.7,35.9c6.8,0,8.1,4.4,7.5,6.9c-1.4,4.8-4.3,7.5-9.7,8.1c-6.5,0.8-14.2,0.2-14.2,0.2s1.6-5.1,2.7-8.8
			C17.1,38.7,19.1,35.9,29.7,35.9z"/>
		<path class="st0" d="M33.7,20c5.7,2.4,6.7,8.2,5.8,15.3c0.4-3.4-0.1-7.2-4.5-10c-4.6-3-17.3-4.8-25.3-5.2
			c-0.6-1.6-1.2-3.3-1.7-4.9C19.5,16.3,27.9,17.6,33.7,20z"/>
		<path class="st0" d="M32.8,28.8c6.1,2.3,6.8,4.5,5.8,11.1c-0.2,0.7-0.4,1.5-0.6,2.2c1.3-5.5-0.2-8.7-9.6-10.1
			c-8.4-1.3-12.8-0.8-16.3-6.5C19.2,26,29.2,27.4,32.8,28.8z"/>
		<path class="st0" d="M36.1,16.9c-4.6-5-20.2-6.6-30-7.3c-1-3.2-1.6-5.3-1.6-5.3S23.1,5,31.4,9c7.4,3.6,10.9,8,8.9,21.3
			C41.2,23.1,39.5,20.6,36.1,16.9z"/>
	</g>
</g>
</svg>
