<?xml version="1.0" encoding="utf-8"?>
<!-- Generator: Adobe Illustrator 22.1.0, SVG Export Plug-In . SVG Version: 6.00 Build 0)  -->
<svg version="1.1" id="Layer_1" xmlns="http://www.w3.org/2000/svg" xmlns:xlink="http://www.w3.org/1999/xlink" x="0px" y="0px"
	 viewBox="0 0 277.2 135.3" style="enable-background:new 0 0 277.2 135.3;" xml:space="preserve">
<style type="text/css">
	.st0{fill:#939598;}
</style>
<path d="M20.7,81.6c2.6,0,4.7,0.6,6.1,1.9s2.2,3,2.2,5.2c0,2.8-1.4,4.9-4.1,6.1v0.1c1.7,0.4,3.1,1.2,4,2.5s1.4,2.9,1.4,4.9
	c0,2.5-0.9,4.4-2.7,5.8c-1.8,1.4-4.3,2.1-7.6,2.1H6.6V81.6H20.7z M19.9,93.6c1.1,0,2.1-0.3,2.9-1s1.2-1.7,1.2-3c0-2.6-1.3-3.9-4-3.9
	h-8.3v7.9H19.9z M20.6,106.1c1.4,0,2.6-0.4,3.4-1.2c0.8-0.8,1.3-1.9,1.3-3.3c0-1.5-0.4-2.6-1.3-3.3c-0.9-0.7-2-1.1-3.4-1.1h-9v8.9
	H20.6z"/>
<path d="M43.5,81.6v24.2H58v4.3H38.5V81.6H43.5z"/>
<path d="M76.4,80.9c4,0,7.3,1.4,9.9,4.2s3.8,6.4,3.8,10.7c0,4.3-1.3,7.9-3.8,10.7s-5.8,4.2-9.9,4.2s-7.4-1.4-9.9-4.2
	c-2.5-2.8-3.8-6.4-3.8-10.7c0-4.3,1.3-7.9,3.8-10.7C69.1,82.3,72.4,80.9,76.4,80.9z M67.7,95.9c0,3.2,0.8,5.8,2.3,7.9s3.7,3,6.4,3
	c2.7,0,4.8-1,6.3-3s2.3-4.6,2.3-7.9S84.2,90,82.6,88s-3.7-3-6.4-3c-2.7,0-4.8,1-6.3,3S67.7,92.6,67.7,95.9z"/>
<path d="M110.5,80.9c4,0,7.3,1.4,9.9,4.2s3.8,6.4,3.8,10.7c0,4.3-1.3,7.9-3.8,10.7s-5.8,4.2-9.9,4.2s-7.4-1.4-9.9-4.2
	c-2.5-2.8-3.8-6.4-3.8-10.7c0-4.3,1.3-7.9,3.8-10.7C103.2,82.3,106.4,80.9,110.5,80.9z M101.8,95.9c0,3.2,0.8,5.8,2.3,7.9
	s3.7,3,6.4,3c2.7,0,4.8-1,6.3-3s2.3-4.6,2.3-7.9s-0.8-5.9-2.4-7.9s-3.7-3-6.4-3c-2.7,0-4.8,1-6.3,3S101.8,92.6,101.8,95.9z"/>
<path d="M139.4,81.6l7.9,22.4h0.1l7.7-22.4h7v28.6h-4.8v-22h-0.1l-7.9,22h-4.1l-7.9-22h-0.1v22h-4.8V81.6H139.4z"/>
<path class="st0" d="M176.6,81.6v28.6h-5V81.6H176.6z"/>
<path class="st0" d="M191.4,81.6l13,21h0.1v-21h4.8v28.6H204l-13-21h-0.1v21h-4.8V81.6H191.4z"/>
<path d="M223.7,81.6v16.9c0,3,0.5,5,1.6,6.2s2.8,1.8,5.1,1.8s4.1-0.6,5.1-1.8c1.1-1.2,1.6-3.2,1.6-6.2v-17h5V100
	c0,3.4-1,6.1-3.1,7.9s-5,2.8-8.6,2.8s-6.5-0.9-8.6-2.8s-3.2-4.5-3.2-7.9V81.6H223.7z"/>
<path d="M261.2,80.9c3.3,0,5.9,0.8,7.9,2.5s3,3.9,3,6.6h-5l0,0c-0.3-3.3-2.4-5-6.2-5c-1.5,0-2.8,0.3-3.8,1c-1,0.6-1.5,1.6-1.5,2.8
	c0,1.9,1.2,3.1,3.6,3.8l7.6,2c1.7,0.5,3.2,1.4,4.3,2.7c1.1,1.3,1.7,2.9,1.7,4.7c0,2.7-1,4.9-3.1,6.5c-2,1.6-4.8,2.5-8.3,2.5
	c-3.6,0-6.5-0.9-8.6-2.7c-2.1-1.8-3.2-4.3-3.3-7.5h5c0,2.1,0.7,3.6,2,4.6s3.1,1.5,5.2,1.5c1.9,0,3.4-0.4,4.5-1.2
	c1.1-0.8,1.6-1.8,1.6-3.1c0-1.8-0.8-3-2.4-3.5c-1.1-0.3-3.8-1.1-8.2-2.2c-4.5-1.1-6.7-3.5-6.7-7.4c0-2.6,1-4.6,2.9-6.1
	C255.7,81.7,258.2,80.9,261.2,80.9z"/>
<g>
	<path d="M68.7,124.8l2.8,7.1h-1.3l-0.7-1.9h-2.9l-0.7,1.9h-1.3l2.7-7.1C67.3,124.8,68.7,124.8,68.7,124.8z M68,126.1l-1.1,3.1h2.2
		L68,126.1L68,126.1z"/>
	<path d="M81.7,124.8v2.8H85v-2.8h1.3v7.1H85v-3.2h-3.3v3.2h-1.3v-7.1C80.4,124.8,81.7,124.8,81.7,124.8z"/>
	<path d="M91.8,124.8v7.1h-1.3v-7.1C90.5,124.8,91.8,124.8,91.8,124.8z"/>
	<path d="M99.3,124.7c0.8,0,1.5,0.2,2.1,0.6s0.9,1,1,1.8h-1.2c-0.1-0.4-0.3-0.8-0.6-1c-0.4-0.3-0.8-0.4-1.2-0.4
		c-0.7,0-1.2,0.3-1.6,0.8s-0.6,1.2-0.6,2s0.2,1.5,0.6,2s0.9,0.7,1.6,0.7c0.6,0,1.1-0.2,1.4-0.5s0.5-0.8,0.5-1.4h-1.9v-1h3v3.8h-0.8
		l-0.2-0.8c-0.3,0.4-0.6,0.6-1,0.8s-0.7,0.2-1.2,0.2c-1,0-1.8-0.4-2.5-1.1s-1-1.6-1-2.7c0-1.1,0.3-2,1-2.7S98.3,124.7,99.3,124.7z"
		/>
	<path d="M108,124.8v2.8h3.3v-2.8h1.3v7.1h-1.3v-3.2H108v3.2h-1.3v-7.1C106.7,124.8,108,124.8,108,124.8z"/>
	<path d="M122,124.8v1.1h-3.9v1.9h3.6v1h-3.6v2.1h4v1.1h-5.2v-7.1h5.1V124.8z"/>
	<path d="M129.5,124.8c0.7,0,1.3,0.2,1.7,0.5s0.6,0.8,0.6,1.4c0,0.9-0.4,1.5-1.2,1.8l0,0c0.3,0,0.6,0.2,0.8,0.5s0.3,0.6,0.3,1.1
		c0,0.9,0.1,1.6,0.4,1.9h-1.3c-0.1-0.2-0.2-0.5-0.2-1.1c0-0.7-0.1-1.2-0.3-1.5s-0.6-0.4-1.1-0.4h-1.9v2.9H126v-7.1
		C126,124.8,129.5,124.8,129.5,124.8z M129.3,128.1c0.8,0,1.2-0.4,1.2-1.1c0-0.4-0.1-0.6-0.3-0.8c-0.2-0.2-0.5-0.3-0.9-0.3h-2.1v2.2
		H129.3z"/>
	<path d="M143.9,124.7c0.8,0,1.5,0.2,2,0.6s0.8,1,0.8,1.7h-1.3l0,0c-0.1-0.8-0.6-1.3-1.5-1.3c-0.4,0-0.7,0.1-0.9,0.2
		c-0.2,0.2-0.4,0.4-0.4,0.7c0,0.5,0.3,0.8,0.9,0.9l1.9,0.5c0.4,0.1,0.8,0.3,1.1,0.7c0.3,0.3,0.4,0.7,0.4,1.2c0,0.7-0.3,1.2-0.8,1.6
		c-0.5,0.4-1.2,0.6-2.1,0.6c-0.9,0-1.6-0.2-2.2-0.7c-0.5-0.4-0.8-1.1-0.8-1.9h1.3c0,0.5,0.2,0.9,0.5,1.1c0.3,0.3,0.8,0.4,1.3,0.4
		s0.9-0.1,1.1-0.3c0.3-0.2,0.4-0.5,0.4-0.8c0-0.5-0.2-0.8-0.6-0.9c-0.3-0.1-0.9-0.3-2-0.6s-1.7-0.9-1.7-1.8c0-0.6,0.2-1.2,0.7-1.5
		S143.1,124.7,143.9,124.7z"/>
	<path d="M155.9,124.8v1.1h-2.3v6.1h-1.3v-6.1H150v-1.1H155.9z"/>
	<path d="M162.1,124.8l2.8,7.1h-1.3l-0.7-1.9H160l-0.7,1.9H158l2.7-7.1C160.7,124.8,162.1,124.8,162.1,124.8z M161.4,126.1l-1.1,3.1
		h2.2L161.4,126.1L161.4,126.1z"/>
	<path d="M169.7,124.8l3.3,5.3l0,0v-5.3h1.2v7.1h-1.3l-3.3-5.2l0,0v5.2h-1.2v-7.1C168.4,124.8,169.7,124.8,169.7,124.8z"/>
	<path d="M181.6,124.8c1,0,1.7,0.3,2.3,1s0.8,1.5,0.8,2.6s-0.3,2-0.8,2.6c-0.6,0.6-1.3,1-2.3,1h-3v-7.1h3V124.8z M181.1,131
		c0.8,0,1.4-0.2,1.8-0.6c0.4-0.4,0.6-1.1,0.6-1.9c0-0.9-0.2-1.5-0.6-1.9c-0.4-0.4-1-0.6-1.7-0.6h-1.3v5.1h1.2V131z"/>
	<path d="M191.7,124.8l2.8,7.1h-1.3l-0.7-1.9h-2.9l-0.7,1.9h-1.3l2.7-7.1C190.3,124.8,191.7,124.8,191.7,124.8z M191,126.1l-1.1,3.1
		h2.2L191,126.1L191,126.1z"/>
	<path d="M201.5,124.8c0.7,0,1.3,0.2,1.7,0.5s0.6,0.8,0.6,1.4c0,0.9-0.4,1.5-1.2,1.8l0,0c0.3,0,0.6,0.2,0.8,0.5s0.3,0.6,0.3,1.1
		c0,0.9,0.1,1.6,0.4,1.9h-1.3c-0.1-0.2-0.2-0.5-0.2-1.1c0-0.7-0.1-1.2-0.3-1.5s-0.6-0.4-1.1-0.4h-1.9v2.9H198v-7.1
		C198,124.8,201.5,124.8,201.5,124.8z M201.4,128.1c0.8,0,1.2-0.4,1.2-1.1c0-0.4-0.1-0.6-0.3-0.8c-0.2-0.2-0.5-0.3-0.9-0.3h-2.1v2.2
		H201.4z"/>
	<path d="M211,124.8c1,0,1.7,0.3,2.3,1s0.8,1.5,0.8,2.6s-0.3,2-0.8,2.6c-0.6,0.6-1.3,1-2.3,1h-3v-7.1h3V124.8z M210.5,131
		c0.8,0,1.4-0.2,1.8-0.6c0.4-0.4,0.6-1.1,0.6-1.9c0-0.9-0.2-1.5-0.6-1.9c-0.4-0.4-1-0.6-1.7-0.6h-1.3v5.1h1.2V131z"/>
</g>
<g>
	<g>
		<path d="M154.1,35.4c-6.8,0-8.1,4.4-7.5,6.9c1.4,4.8,4.3,7.5,9.7,8.1c6.5,0.8,14.2,0.2,14.2,0.2s-1.6-5.1-2.7-8.8
			C166.7,38.1,164.7,35.4,154.1,35.4z"/>
		<path d="M150.1,19.5c-5.7,2.4-6.7,8.2-5.8,15.3c-0.4-3.4,0.1-7.2,4.5-10c4.6-3,17.3-4.8,25.3-5.2c0.6-1.6,1.2-3.3,1.7-4.9
			C164.3,15.7,155.9,17,150.1,19.5z"/>
		<path d="M151,28.3c-6.1,2.3-6.8,4.5-5.8,11.1c0.2,0.7,0.4,1.5,0.6,2.2c-1.3-5.5,0.2-8.7,9.6-10.1c8.4-1.3,12.8-0.8,16.3-6.5
			C164.6,25.4,154.6,26.9,151,28.3z"/>
		<path d="M147.7,16.4c4.6-5,20.2-6.6,30-7.3c1-3.2,1.6-5.3,1.6-5.3s-18.6,0.7-26.9,4.7c-7.4,3.6-10.9,8-8.9,21.3
			C142.6,22.5,144.3,20,147.7,16.4z"/>
	</g>
	<g>
		<path d="M127.8,35.4c6.8,0,8.1,4.4,7.5,6.9c-1.4,4.8-4.3,7.5-9.7,8.1c-6.5,0.8-14.2,0.2-14.2,0.2s1.6-5.1,2.7-8.8
			C115.2,38.1,117.2,35.4,127.8,35.4z"/>
		<path d="M131.8,19.5c5.7,2.4,6.7,8.2,5.8,15.3c0.4-3.4-0.1-7.2-4.5-10c-4.6-3-17.3-4.8-25.3-5.2c-0.6-1.6-1.2-3.3-1.7-4.9
			C117.6,15.7,126,17,131.8,19.5z"/>
		<path d="M130.9,28.3c6.1,2.3,6.8,4.5,5.8,11.1c-0.2,0.7-0.4,1.5-0.6,2.2c1.3-5.5-0.2-8.7-9.6-10.1c-8.4-1.3-12.8-0.8-16.3-6.5
			C117.3,25.4,127.3,26.9,130.9,28.3z"/>
		<path d="M134.2,16.4c-4.6-5-20.2-6.6-30-7.3c-1-3.2-1.6-5.3-1.6-5.3s18.6,0.7,26.9,4.7c7.4,3.6,10.9,8,8.9,21.3
			C139.3,22.5,137.6,20,134.2,16.4z"/>
	</g>
</g>
</svg>
